<svg xmlns="http://www.w3.org/2000/svg" viewBox="0 0 512 512">
  <defs>
    <linearGradient id="bg" x1="0" y1="0" x2="1" y2="1">
      <stop offset="0%" stop-color="#6366F1"/>
      <stop offset="100%" stop-color="#4F46E5"/>
    </linearGradient>
  </defs>
  <rect width="512" height="512" rx="96" fill="url(#bg)"/>
  <rect x="120" y="96" width="240" height="272" rx="16" fill="#fff"/>
  <rect x="100" y="96" width="48" height="272" rx="16" fill="#E0E7FF"/>
  <line x1="168" y1="160" x2="336" y2="160" stroke="#C7D2FE" stroke-width="8" stroke-linecap="round"/>
  <line x1="168" y1="200" x2="336" y2="200" stroke="#C7D2FE" stroke-width="8" stroke-linecap="round"/>
  <line x1="168" y1="240" x2="336" y2="240" stroke="#C7D2FE" stroke-width="8" stroke-linecap="round"/>
  <circle cx="300" cy="340" r="80" fill="#4F46E5" opacity="0.9"/>
  <circle cx="300" cy="340" r="80" fill="none" stroke="#fff" stroke-width="6"/>
  <line x1="300" y1="290" x2="300" y2="390" stroke="#fff" stroke-width="8" stroke-linecap="round"/>
  <path d="M274,315 C274,315 280,305 300,305 C320,305 326,315 326,322 C326,332 314,336 300,340 C286,344 274,348 274,358 C274,368 282,378 300,378 C320,378 326,368 326,368" fill="none" stroke="#fff" stroke-width="8" stroke-linecap="round" stroke-linejoin="round"/>
</svg>
